# xmcd
#
# Track frame offsets:
# 150
# 14750
# 30957
# 52010
# 77567
# 94630
# 112442
# 140650
# 165010
# 181322
# 198087
#
# Disc length: 2884 seconds
#
# Revision: 0
# Processed by: cddbd v1.4PL0 Copyright (c) Steve Scherf et al.
# Submitted via: Audion 2.5.0 (http://www.panic.com/audion/)
#
DISCID=880b420b
DTITLE=Neol Davis - Box of Blues
DYEAR=1900
DGENRE=
TTITLE0=This time it is for real
TTITLE1=Pack a pistol
TTITLE2=Since your loves gone away
TTITLE3=Box of blues
TTITLE4=Come on home
TTITLE5=Distance Train
TTITLE6=Driving around town
TTITLE7=Thunderstorm in my heart
TTITLE8=Bad case of hit and run
TTITLE9=Here comes love
TTITLE10=Paridise revisited
EXTD=
EXTT0=
EXTT1=
EXTT2=
EXTT3=
EXTT4=
EXTT5=
EXTT6=
EXTT7=
EXTT8=
EXTT9=
EXTT10=
PLAYORDER=
